<svg width="200" height="92" viewBox="0 0 200 92" fill="none" xmlns="http://www.w3.org/2000/svg">
<circle cx="45.3059" cy="46.5467" r="45.3059" fill="#E6E6E6"/>
<path d="M58.1317 47.6464C58.7392 47.6464 59.2317 47.1539 59.2317 46.5464C59.2317 45.9388 58.7392 45.4464 58.1317 45.4464L58.1317 47.6464ZM32.479 45.4464C31.8715 45.4464 31.379 45.9388 31.379 46.5464C31.379 47.1539 31.8715 47.6464 32.479 47.6464L32.479 45.4464ZM38.1179 55.3441C38.5493 55.7718 39.2458 55.7686 39.6735 55.3372C40.1011 54.9057 40.098 54.2092 39.6665 53.7815L38.1179 55.3441ZM36.0656 51.7614L36.84 50.9801L36.0656 51.7614ZM36.0656 41.3314L36.84 42.1126L36.0656 41.3314ZM39.6665 39.3112C40.098 38.8835 40.1011 38.1871 39.6735 37.7556C39.2458 37.3241 38.5493 37.321 38.1179 37.7486L39.6665 39.3112ZM32.5109 47.0487L31.4197 47.1878L31.4197 47.1878L32.5109 47.0487ZM32.5109 46.044L31.4197 45.9049L31.4197 45.9049L32.5109 46.044ZM58.1317 45.4464L32.479 45.4464L32.479 47.6464L58.1317 47.6464L58.1317 45.4464ZM39.6665 53.7815L36.84 50.9801L35.2913 52.5427L38.1179 55.3441L39.6665 53.7815ZM36.84 42.1126L39.6665 39.3112L38.1179 37.7486L35.2913 40.5501L36.84 42.1126ZM36.84 50.9801C35.6945 49.8448 34.9027 49.0576 34.3657 48.389C33.8427 47.7378 33.6527 47.3066 33.6021 46.9096L31.4197 47.1878C31.5427 48.1524 32.003 48.9604 32.6504 49.7666C33.2839 50.5554 34.1826 51.4438 35.2913 52.5427L36.84 50.9801ZM35.2913 40.5501C34.1826 41.6489 33.2839 42.5373 32.6504 43.3261C32.003 44.1323 31.5427 44.9403 31.4197 45.9049L33.6021 46.1831C33.6527 45.7862 33.8427 45.3549 34.3657 44.7037C34.9027 44.0351 35.6945 43.2479 36.84 42.1126L35.2913 40.5501ZM33.6021 46.9096C33.5713 46.6684 33.5713 46.4243 33.6021 46.1831L31.4197 45.9049C31.3655 46.3308 31.3655 46.7619 31.4197 47.1878L33.6021 46.9096Z" fill="#373737"/>
<circle cx="154.694" cy="45.3059" r="45.3059" transform="rotate(180 154.694 45.3059)" fill="#E3B748"/>
<path d="M142.951 44.2064C142.344 44.2064 141.851 44.6988 141.851 45.3064C141.851 45.9139 142.344 46.4064 142.951 46.4064L142.951 44.2064ZM168.604 46.4064C169.212 46.4064 169.704 45.9139 169.704 45.3064C169.704 44.6988 169.212 44.2064 168.604 44.2064L168.604 46.4064ZM162.965 36.5086C162.534 36.081 161.837 36.0841 161.41 36.5156C160.982 36.9471 160.985 37.6435 161.417 38.0712L162.965 36.5086ZM165.017 40.0913L164.243 40.8726L165.017 40.0913ZM165.017 50.5214L164.243 49.7401L165.017 50.5214ZM161.417 52.5415C160.985 52.9692 160.982 53.6657 161.41 54.0972C161.837 54.5286 162.534 54.5317 162.965 54.1041L161.417 52.5415ZM168.572 44.804L169.663 44.6649L169.663 44.6649L168.572 44.804ZM168.572 45.8087L169.663 45.9478L169.663 45.9478L168.572 45.8087ZM142.951 46.4064L168.604 46.4064L168.604 44.2064L142.951 44.2064L142.951 46.4064ZM161.417 38.0712L164.243 40.8726L165.792 39.3101L162.965 36.5086L161.417 38.0712ZM164.243 49.7401L161.417 52.5415L162.965 54.1041L165.792 51.3026L164.243 49.7401ZM164.243 40.8726C165.388 42.0079 166.18 42.7951 166.717 43.4637C167.24 44.1149 167.43 44.5462 167.481 44.9431L169.663 44.6649C169.54 43.7003 169.08 42.8923 168.433 42.0861C167.799 41.2973 166.9 40.4089 165.792 39.3101L164.243 40.8726ZM165.792 51.3026C166.9 50.2038 167.799 49.3154 168.433 48.5266C169.08 47.7204 169.54 46.9124 169.663 45.9478L167.481 45.6696C167.43 46.0666 167.24 46.4978 166.717 47.149C166.18 47.8176 165.388 48.6048 164.243 49.7401L165.792 51.3026ZM167.481 44.9431C167.512 45.1843 167.512 45.4284 167.481 45.6696L169.663 45.9478C169.718 45.5219 169.718 45.0908 169.663 44.6649L167.481 44.9431Z" fill="black"/>
</svg>
