<svg width="855" height="31" viewBox="0 0 855 31" fill="none" xmlns="http://www.w3.org/2000/svg">
<path d="M1.40909 19V7.36364H2.81818V12.5455H9.02273V7.36364H10.4318V19H9.02273V13.7955H2.81818V19H1.40909ZM16.7165 19.1818C15.9286 19.1818 15.2373 18.9943 14.6426 18.6193C14.0517 18.2443 13.5896 17.7197 13.2563 17.0455C12.9267 16.3712 12.7619 15.5833 12.7619 14.6818C12.7619 13.7727 12.9267 12.9792 13.2563 12.3011C13.5896 11.6231 14.0517 11.0966 14.6426 10.7216C15.2373 10.3466 15.9286 10.1591 16.7165 10.1591C17.5044 10.1591 18.1938 10.3466 18.7847 10.7216C19.3794 11.0966 19.8415 11.6231 20.171 12.3011C20.5044 12.9792 20.671 13.7727 20.671 14.6818C20.671 15.5833 20.5044 16.3712 20.171 17.0455C19.8415 17.7197 19.3794 18.2443 18.7847 18.6193C18.1938 18.9943 17.5044 19.1818 16.7165 19.1818ZM16.7165 17.9773C17.315 17.9773 17.8074 17.8239 18.1938 17.517C18.5801 17.2102 18.8661 16.8068 19.0517 16.3068C19.2373 15.8068 19.3301 15.2652 19.3301 14.6818C19.3301 14.0985 19.2373 13.5549 19.0517 13.0511C18.8661 12.5473 18.5801 12.1402 18.1938 11.8295C17.8074 11.5189 17.315 11.3636 16.7165 11.3636C16.118 11.3636 15.6256 11.5189 15.2392 11.8295C14.8528 12.1402 14.5669 12.5473 14.3813 13.0511C14.1956 13.5549 14.1028 14.0985 14.1028 14.6818C14.1028 15.2652 14.1956 15.8068 14.3813 16.3068C14.5669 16.8068 14.8528 17.2102 15.2392 17.517C15.6256 17.8239 16.118 17.9773 16.7165 17.9773ZM22.8179 19V10.2727H24.1134V11.6364H24.227C24.4088 11.1705 24.7024 10.8087 25.1077 10.5511C25.513 10.2898 25.9997 10.1591 26.5679 10.1591C27.1437 10.1591 27.6228 10.2898 28.0054 10.5511C28.3918 10.8087 28.6929 11.1705 28.9088 11.6364H28.9997C29.2232 11.1856 29.5584 10.8277 30.0054 10.5625C30.4524 10.2936 30.9884 10.1591 31.6134 10.1591C32.3937 10.1591 33.0319 10.4034 33.5281 10.892C34.0243 11.3769 34.2724 12.1326 34.2724 13.1591V19H32.9315V13.1591C32.9315 12.5152 32.7554 12.0549 32.4031 11.7784C32.0509 11.5019 31.6361 11.3636 31.1588 11.3636C30.5452 11.3636 30.0698 11.5492 29.7327 11.9205C29.3956 12.2879 29.227 12.7538 29.227 13.3182V19H27.8634V13.0227C27.8634 12.5265 27.7024 12.1269 27.3804 11.8239C27.0584 11.517 26.6437 11.3636 26.1361 11.3636C25.7876 11.3636 25.4618 11.4564 25.1588 11.642C24.8596 11.8277 24.6171 12.0852 24.4315 12.4148C24.2497 12.7405 24.1588 13.1174 24.1588 13.5455V19H22.8179ZM40.4832 19.1818C39.6423 19.1818 38.9169 18.9962 38.3071 18.625C37.701 18.25 37.2332 17.7273 36.9037 17.0568C36.5779 16.3826 36.4151 15.5985 36.4151 14.7045C36.4151 13.8106 36.5779 13.0227 36.9037 12.3409C37.2332 11.6553 37.6916 11.1212 38.2787 10.7386C38.8696 10.3523 39.559 10.1591 40.3469 10.1591C40.8014 10.1591 41.2503 10.2348 41.6935 10.3864C42.1366 10.5379 42.5401 10.7841 42.9037 11.125C43.2673 11.4621 43.5571 11.9091 43.773 12.4659C43.9889 13.0227 44.0969 13.7083 44.0969 14.5227V15.0909H37.3696V13.9318H42.7332C42.7332 13.4394 42.6348 13 42.4378 12.6136C42.2446 12.2273 41.9681 11.9223 41.6082 11.6989C41.2522 11.4754 40.8317 11.3636 40.3469 11.3636C39.8128 11.3636 39.3507 11.4962 38.9605 11.7614C38.5741 12.0227 38.2768 12.3636 38.0685 12.7841C37.8601 13.2045 37.756 13.6553 37.756 14.1364V14.9091C37.756 15.5682 37.8696 16.1269 38.0969 16.5852C38.3279 17.0398 38.648 17.3864 39.0571 17.625C39.4662 17.8598 39.9416 17.9773 40.4832 17.9773C40.8355 17.9773 41.1537 17.928 41.4378 17.8295C41.7257 17.7273 41.9738 17.5758 42.1821 17.375C42.3904 17.1705 42.5514 16.9167 42.6651 16.6136L43.9605 16.9773C43.8241 17.4167 43.595 17.803 43.273 18.1364C42.951 18.4659 42.5533 18.7235 42.0798 18.9091C41.6063 19.0909 41.0741 19.1818 40.4832 19.1818Z" fill="white"/>
<path d="M127.642 17H125.392L129.489 5.36364H132.091L136.193 17H133.943L130.835 7.75H130.744L127.642 17ZM127.716 12.4375H133.852V14.1307H127.716V12.4375ZM141.446 8.27273V9.86364H136.429V8.27273H141.446ZM137.668 6.18182H139.724V14.375C139.724 14.6515 139.766 14.8636 139.849 15.0114C139.937 15.1553 140.05 15.2538 140.19 15.3068C140.33 15.3598 140.486 15.3864 140.656 15.3864C140.785 15.3864 140.902 15.3769 141.009 15.358C141.118 15.339 141.202 15.322 141.259 15.3068L141.605 16.9148C141.495 16.9527 141.338 16.9943 141.134 17.0398C140.933 17.0852 140.687 17.1117 140.395 17.1193C139.88 17.1345 139.416 17.0568 139.003 16.8864C138.59 16.7121 138.262 16.4432 138.02 16.0795C137.781 15.7159 137.664 15.2614 137.668 14.7159V6.18182ZM147.524 8.27273V9.86364H142.507V8.27273H147.524ZM143.746 6.18182H145.803V14.375C145.803 14.6515 145.844 14.8636 145.928 15.0114C146.015 15.1553 146.128 15.2538 146.268 15.3068C146.409 15.3598 146.564 15.3864 146.734 15.3864C146.863 15.3864 146.981 15.3769 147.087 15.358C147.196 15.339 147.28 15.322 147.337 15.3068L147.683 16.9148C147.573 16.9527 147.416 16.9943 147.212 17.0398C147.011 17.0852 146.765 17.1117 146.473 17.1193C145.958 17.1345 145.494 17.0568 145.081 16.8864C144.668 16.7121 144.34 16.4432 144.098 16.0795C143.859 15.7159 143.742 15.2614 143.746 14.7159V6.18182ZM152.957 17.1705C152.105 17.1705 151.366 16.983 150.741 16.608C150.116 16.233 149.632 15.7083 149.287 15.0341C148.946 14.3598 148.776 13.572 148.776 12.6705C148.776 11.7689 148.946 10.9792 149.287 10.3011C149.632 9.62311 150.116 9.09659 150.741 8.72159C151.366 8.34659 152.105 8.15909 152.957 8.15909C153.81 8.15909 154.548 8.34659 155.173 8.72159C155.798 9.09659 156.281 9.62311 156.622 10.3011C156.967 10.9792 157.139 11.7689 157.139 12.6705C157.139 13.572 156.967 14.3598 156.622 15.0341C156.281 15.7083 155.798 16.233 155.173 16.608C154.548 16.983 153.81 17.1705 152.957 17.1705ZM152.969 15.5227C153.431 15.5227 153.817 15.3958 154.128 15.142C154.438 14.8845 154.67 14.5398 154.821 14.108C154.976 13.6761 155.054 13.1951 155.054 12.6648C155.054 12.1307 154.976 11.6477 154.821 11.2159C154.67 10.7803 154.438 10.4337 154.128 10.1761C153.817 9.91856 153.431 9.78977 152.969 9.78977C152.495 9.78977 152.101 9.91856 151.787 10.1761C151.476 10.4337 151.243 10.7803 151.088 11.2159C150.937 11.6477 150.861 12.1307 150.861 12.6648C150.861 13.1951 150.937 13.6761 151.088 14.108C151.243 14.5398 151.476 14.8845 151.787 15.142C152.101 15.3958 152.495 15.5227 152.969 15.5227ZM158.885 17V8.27273H160.879V9.72727H160.97C161.129 9.22348 161.402 8.83523 161.788 8.5625C162.179 8.28598 162.624 8.14773 163.124 8.14773C163.237 8.14773 163.364 8.15341 163.504 8.16477C163.648 8.17235 163.768 8.18561 163.862 8.20455V10.0966C163.775 10.0663 163.637 10.0398 163.447 10.017C163.262 9.99053 163.082 9.97727 162.908 9.97727C162.533 9.97727 162.196 10.0587 161.896 10.2216C161.601 10.3807 161.368 10.6023 161.197 10.8864C161.027 11.1705 160.942 11.4981 160.942 11.8693V17H158.885ZM167.286 11.8864V17H165.229V8.27273H167.195V9.75568H167.297C167.498 9.26705 167.818 8.87879 168.257 8.59091C168.7 8.30303 169.248 8.15909 169.899 8.15909C170.501 8.15909 171.026 8.28788 171.473 8.54545C171.924 8.80303 172.272 9.17614 172.518 9.66477C172.768 10.1534 172.892 10.7462 172.888 11.4432V17H170.831V11.7614C170.831 11.178 170.679 10.7216 170.376 10.392C170.077 10.0625 169.662 9.89773 169.132 9.89773C168.772 9.89773 168.452 9.97727 168.172 10.1364C167.895 10.2917 167.678 10.517 167.518 10.8125C167.363 11.108 167.286 11.4659 167.286 11.8864ZM178.842 17.1705C177.967 17.1705 177.212 16.9886 176.575 16.625C175.943 16.2576 175.456 15.7386 175.115 15.0682C174.774 14.3939 174.604 13.6004 174.604 12.6875C174.604 11.7898 174.774 11.0019 175.115 10.3239C175.46 9.64205 175.941 9.11174 176.558 8.73295C177.176 8.35038 177.901 8.15909 178.734 8.15909C179.272 8.15909 179.78 8.24621 180.257 8.42045C180.738 8.59091 181.162 8.85606 181.53 9.21591C181.901 9.57576 182.193 10.0341 182.405 10.5909C182.617 11.1439 182.723 11.803 182.723 12.5682V13.1989H175.57V11.8125H180.751C180.748 11.4186 180.662 11.0682 180.496 10.7614C180.329 10.4508 180.096 10.2064 179.797 10.0284C179.501 9.85038 179.157 9.76136 178.763 9.76136C178.342 9.76136 177.973 9.86364 177.655 10.0682C177.337 10.2689 177.089 10.5341 176.911 10.8636C176.736 11.1894 176.647 11.5473 176.643 11.9375V13.1477C176.643 13.6553 176.736 14.0909 176.922 14.4545C177.107 14.8144 177.367 15.0909 177.7 15.2841C178.034 15.4735 178.424 15.5682 178.871 15.5682C179.17 15.5682 179.441 15.5265 179.683 15.4432C179.926 15.3561 180.136 15.2292 180.314 15.0625C180.492 14.8958 180.626 14.6894 180.717 14.4432L182.638 14.6591C182.517 15.1667 182.286 15.6098 181.945 15.9886C181.607 16.3636 181.176 16.6553 180.649 16.8636C180.123 17.0682 179.52 17.1705 178.842 17.1705ZM185.491 20.2727C185.211 20.2727 184.952 20.25 184.713 20.2045C184.478 20.1629 184.291 20.1136 184.151 20.0568L184.628 18.4545C184.927 18.5417 185.194 18.5833 185.429 18.5795C185.664 18.5758 185.87 18.5019 186.048 18.358C186.23 18.2178 186.384 17.983 186.509 17.6534L186.685 17.1818L183.52 8.27273H185.702L187.713 14.8636H187.804L189.821 8.27273H192.009L188.514 18.0568C188.351 18.5189 188.135 18.9148 187.866 19.2443C187.598 19.5777 187.268 19.8314 186.878 20.0057C186.491 20.1837 186.029 20.2727 185.491 20.2727ZM200.33 10.5795L198.455 10.7841C198.402 10.5947 198.309 10.4167 198.176 10.25C198.047 10.0833 197.873 9.94886 197.653 9.84659C197.434 9.74432 197.165 9.69318 196.847 9.69318C196.419 9.69318 196.059 9.78598 195.767 9.97159C195.479 10.1572 195.337 10.3977 195.341 10.6932C195.337 10.947 195.43 11.1534 195.619 11.3125C195.813 11.4716 196.131 11.6023 196.574 11.7045L198.062 12.0227C198.888 12.2008 199.502 12.483 199.903 12.8693C200.309 13.2557 200.513 13.7614 200.517 14.3864C200.513 14.9356 200.352 15.4205 200.034 15.8409C199.72 16.2576 199.282 16.5833 198.722 16.8182C198.161 17.053 197.517 17.1705 196.79 17.1705C195.722 17.1705 194.862 16.947 194.21 16.5C193.559 16.0492 193.17 15.4223 193.045 14.6193L195.051 14.4261C195.142 14.8201 195.335 15.1174 195.631 15.3182C195.926 15.5189 196.311 15.6193 196.784 15.6193C197.273 15.6193 197.665 15.5189 197.96 15.3182C198.259 15.1174 198.409 14.8693 198.409 14.5739C198.409 14.3239 198.313 14.1174 198.119 13.9545C197.93 13.7917 197.634 13.6667 197.233 13.5795L195.744 13.267C194.907 13.0928 194.288 12.7992 193.886 12.3864C193.485 11.9697 193.286 11.4432 193.29 10.8068C193.286 10.2689 193.432 9.80303 193.727 9.40909C194.027 9.01136 194.441 8.70455 194.972 8.48864C195.506 8.26894 196.121 8.15909 196.818 8.15909C197.841 8.15909 198.646 8.37689 199.233 8.8125C199.824 9.24811 200.189 9.83712 200.33 10.5795Z" fill="white"/>
<path d="M282.011 18V6.36364H286.602C287.485 6.36364 288.237 6.5322 288.858 6.86932C289.479 7.20265 289.953 7.66667 290.278 8.26136C290.608 8.85227 290.773 9.53409 290.773 10.3068C290.773 11.0795 290.606 11.7614 290.273 12.3523C289.939 12.9432 289.456 13.4034 288.824 13.733C288.195 14.0625 287.434 14.2273 286.54 14.2273H283.614V12.2557H286.142C286.616 12.2557 287.006 12.1742 287.312 12.0114C287.623 11.8447 287.854 11.6155 288.006 11.3239C288.161 11.0284 288.239 10.6894 288.239 10.3068C288.239 9.92045 288.161 9.58333 288.006 9.29545C287.854 9.00379 287.623 8.77841 287.312 8.61932C287.002 8.45644 286.608 8.375 286.131 8.375H284.472V18H282.011ZM292.425 18V9.27273H294.772V10.7955H294.863C295.022 10.2538 295.289 9.8447 295.664 9.56818C296.039 9.28788 296.471 9.14773 296.959 9.14773C297.081 9.14773 297.211 9.1553 297.351 9.17045C297.492 9.18561 297.615 9.20644 297.721 9.23295V11.3807C297.607 11.3466 297.45 11.3163 297.249 11.2898C297.048 11.2633 296.865 11.25 296.698 11.25C296.342 11.25 296.024 11.3277 295.743 11.483C295.467 11.6345 295.247 11.8466 295.084 12.1193C294.925 12.392 294.846 12.7064 294.846 13.0625V18H292.425ZM301.311 18.1648C300.754 18.1648 300.258 18.0682 299.822 17.875C299.387 17.678 299.042 17.3883 298.788 17.0057C298.538 16.6193 298.413 16.1383 298.413 15.5625C298.413 15.0777 298.502 14.6705 298.68 14.3409C298.858 14.0114 299.101 13.7462 299.407 13.5455C299.714 13.3447 300.063 13.1932 300.453 13.0909C300.847 12.9886 301.26 12.9167 301.691 12.875C302.199 12.822 302.608 12.7727 302.919 12.7273C303.229 12.678 303.455 12.6061 303.595 12.5114C303.735 12.4167 303.805 12.2765 303.805 12.0909V12.0568C303.805 11.697 303.691 11.4186 303.464 11.2216C303.241 11.0246 302.923 10.9261 302.51 10.9261C302.074 10.9261 301.727 11.0227 301.47 11.2159C301.212 11.4053 301.042 11.6439 300.959 11.9318L298.72 11.75C298.834 11.2197 299.057 10.7614 299.39 10.375C299.724 9.98485 300.154 9.68561 300.68 9.47727C301.21 9.26515 301.824 9.15909 302.521 9.15909C303.006 9.15909 303.47 9.21591 303.913 9.32955C304.36 9.44318 304.756 9.61932 305.101 9.85795C305.449 10.0966 305.724 10.4034 305.924 10.7784C306.125 11.1496 306.226 11.5947 306.226 12.1136V18H303.93V16.7898H303.862C303.722 17.0625 303.534 17.303 303.299 17.5114C303.065 17.7159 302.782 17.8769 302.453 17.9943C302.123 18.108 301.743 18.1648 301.311 18.1648ZM302.004 16.4943C302.36 16.4943 302.674 16.4242 302.947 16.2841C303.22 16.1402 303.434 15.947 303.589 15.7045C303.745 15.4621 303.822 15.1875 303.822 14.8807V13.9545C303.746 14.0038 303.642 14.0492 303.51 14.0909C303.381 14.1288 303.235 14.1648 303.072 14.1989C302.909 14.2292 302.746 14.2576 302.584 14.2841C302.421 14.3068 302.273 14.3277 302.14 14.3466C301.856 14.3883 301.608 14.4545 301.396 14.5455C301.184 14.6364 301.019 14.7595 300.902 14.9148C300.784 15.0663 300.726 15.2557 300.726 15.483C300.726 15.8125 300.845 16.0644 301.084 16.2386C301.326 16.4091 301.633 16.4943 302.004 16.4943ZM312.147 18.1705C311.253 18.1705 310.484 17.9811 309.84 17.6023C309.2 17.2197 308.707 16.6894 308.362 16.0114C308.022 15.3333 307.851 14.553 307.851 13.6705C307.851 12.7765 308.023 11.9924 308.368 11.3182C308.717 10.6402 309.211 10.1117 309.851 9.73295C310.491 9.35038 311.253 9.15909 312.135 9.15909C312.897 9.15909 313.563 9.29735 314.135 9.57386C314.707 9.85038 315.16 10.2386 315.493 10.7386C315.827 11.2386 316.01 11.8258 316.044 12.5H313.76C313.696 12.0644 313.525 11.714 313.249 11.4489C312.976 11.1799 312.618 11.0455 312.175 11.0455C311.8 11.0455 311.472 11.1477 311.192 11.3523C310.916 11.553 310.7 11.8466 310.544 12.233C310.389 12.6193 310.311 13.0871 310.311 13.6364C310.311 14.1932 310.387 14.6667 310.539 15.0568C310.694 15.447 310.912 15.7443 311.192 15.9489C311.472 16.1534 311.8 16.2557 312.175 16.2557C312.452 16.2557 312.7 16.1989 312.919 16.0852C313.143 15.9716 313.327 15.8068 313.47 15.5909C313.618 15.3712 313.715 15.108 313.76 14.8011H316.044C316.006 15.4678 315.825 16.0549 315.499 16.5625C315.177 17.0663 314.732 17.4602 314.164 17.7443C313.595 18.0284 312.923 18.1705 312.147 18.1705ZM322.336 9.27273V11.0909H317.08V9.27273H322.336ZM318.274 7.18182H320.694V15.3182C320.694 15.5417 320.728 15.7159 320.796 15.8409C320.864 15.9621 320.959 16.0473 321.08 16.0966C321.205 16.1458 321.349 16.1705 321.512 16.1705C321.626 16.1705 321.739 16.161 321.853 16.142C321.967 16.1193 322.054 16.1023 322.114 16.0909L322.495 17.892C322.374 17.9299 322.204 17.9735 321.984 18.0227C321.764 18.0758 321.497 18.108 321.183 18.1193C320.599 18.142 320.088 18.0644 319.649 17.8864C319.213 17.7083 318.874 17.4318 318.632 17.0568C318.389 16.6818 318.27 16.2083 318.274 15.6364V7.18182ZM324.013 18V9.27273H326.433V18H324.013ZM325.229 8.14773C324.869 8.14773 324.56 8.02841 324.303 7.78977C324.049 7.54735 323.922 7.25758 323.922 6.92045C323.922 6.58712 324.049 6.30114 324.303 6.0625C324.56 5.82008 324.869 5.69886 325.229 5.69886C325.589 5.69886 325.895 5.82008 326.149 6.0625C326.407 6.30114 326.536 6.58712 326.536 6.92045C326.536 7.25758 326.407 7.54735 326.149 7.78977C325.895 8.02841 325.589 8.14773 325.229 8.14773ZM332.415 18.1705C331.521 18.1705 330.752 17.9811 330.109 17.6023C329.468 17.2197 328.976 16.6894 328.631 16.0114C328.29 15.3333 328.12 14.553 328.12 13.6705C328.12 12.7765 328.292 11.9924 328.637 11.3182C328.985 10.6402 329.48 10.1117 330.12 9.73295C330.76 9.35038 331.521 9.15909 332.404 9.15909C333.165 9.15909 333.832 9.29735 334.404 9.57386C334.976 9.85038 335.429 10.2386 335.762 10.7386C336.095 11.2386 336.279 11.8258 336.313 12.5H334.029C333.965 12.0644 333.794 11.714 333.518 11.4489C333.245 11.1799 332.887 11.0455 332.444 11.0455C332.069 11.0455 331.741 11.1477 331.461 11.3523C331.184 11.553 330.968 11.8466 330.813 12.233C330.658 12.6193 330.58 13.0871 330.58 13.6364C330.58 14.1932 330.656 14.6667 330.807 15.0568C330.963 15.447 331.18 15.7443 331.461 15.9489C331.741 16.1534 332.069 16.2557 332.444 16.2557C332.72 16.2557 332.968 16.1989 333.188 16.0852C333.412 15.9716 333.595 15.8068 333.739 15.5909C333.887 15.3712 333.984 15.108 334.029 14.8011H336.313C336.275 15.4678 336.093 16.0549 335.768 16.5625C335.446 17.0663 335.001 17.4602 334.432 17.7443C333.864 18.0284 333.192 18.1705 332.415 18.1705ZM341.94 18.1705C341.042 18.1705 340.27 17.9886 339.622 17.625C338.978 17.2576 338.482 16.7386 338.133 16.0682C337.785 15.3939 337.611 14.5966 337.611 13.6761C337.611 12.7784 337.785 11.9905 338.133 11.3125C338.482 10.6345 338.972 10.1061 339.605 9.72727C340.241 9.34848 340.987 9.15909 341.843 9.15909C342.419 9.15909 342.955 9.25189 343.451 9.4375C343.951 9.61932 344.387 9.89394 344.758 10.2614C345.133 10.6288 345.425 11.0909 345.633 11.6477C345.842 12.2008 345.946 12.8485 345.946 13.5909V14.2557H338.576V12.7557H343.667C343.667 12.4072 343.592 12.0985 343.44 11.8295C343.289 11.5606 343.078 11.3504 342.809 11.1989C342.544 11.0436 342.236 10.9659 341.883 10.9659C341.516 10.9659 341.19 11.0511 340.906 11.2216C340.626 11.3883 340.406 11.6136 340.247 11.8977C340.088 12.178 340.006 12.4905 340.003 12.8352V14.2614C340.003 14.6932 340.082 15.0663 340.241 15.3807C340.404 15.6951 340.633 15.9375 340.929 16.108C341.224 16.2784 341.575 16.3636 341.98 16.3636C342.249 16.3636 342.495 16.3258 342.718 16.25C342.942 16.1742 343.133 16.0606 343.292 15.9091C343.451 15.7576 343.573 15.572 343.656 15.3523L345.895 15.5C345.781 16.0379 345.548 16.5076 345.196 16.9091C344.847 17.3068 344.396 17.6174 343.843 17.8409C343.294 18.0606 342.66 18.1705 341.94 18.1705ZM353.48 18H350.843L354.86 6.36364H358.031L362.042 18H359.406L356.491 9.02273H356.4L353.48 18ZM353.315 13.4261H359.542V15.3466H353.315V13.4261ZM363.497 18V9.27273H365.844V10.7955H365.935C366.094 10.2538 366.361 9.8447 366.736 9.56818C367.111 9.28788 367.543 9.14773 368.031 9.14773C368.152 9.14773 368.283 9.1553 368.423 9.17045C368.563 9.18561 368.687 9.20644 368.793 9.23295V11.3807C368.679 11.3466 368.522 11.3163 368.321 11.2898C368.12 11.2633 367.937 11.25 367.77 11.25C367.414 11.25 367.096 11.3277 366.815 11.483C366.539 11.6345 366.319 11.8466 366.156 12.1193C365.997 12.392 365.918 12.7064 365.918 13.0625V18H363.497ZM373.715 18.1705C372.817 18.1705 372.045 17.9886 371.397 17.625C370.753 17.2576 370.257 16.7386 369.908 16.0682C369.56 15.3939 369.386 14.5966 369.386 13.6761C369.386 12.7784 369.56 11.9905 369.908 11.3125C370.257 10.6345 370.747 10.1061 371.38 9.72727C372.016 9.34848 372.762 9.15909 373.618 9.15909C374.194 9.15909 374.73 9.25189 375.226 9.4375C375.726 9.61932 376.162 9.89394 376.533 10.2614C376.908 10.6288 377.2 11.0909 377.408 11.6477C377.617 12.2008 377.721 12.8485 377.721 13.5909V14.2557H370.351V12.7557H375.442C375.442 12.4072 375.367 12.0985 375.215 11.8295C375.064 11.5606 374.853 11.3504 374.584 11.1989C374.319 11.0436 374.011 10.9659 373.658 10.9659C373.291 10.9659 372.965 11.0511 372.681 11.2216C372.401 11.3883 372.181 11.6136 372.022 11.8977C371.863 12.178 371.781 12.4905 371.778 12.8352V14.2614C371.778 14.6932 371.857 15.0663 372.016 15.3807C372.179 15.6951 372.408 15.9375 372.704 16.108C372.999 16.2784 373.35 16.3636 373.755 16.3636C374.024 16.3636 374.27 16.3258 374.493 16.25C374.717 16.1742 374.908 16.0606 375.067 15.9091C375.226 15.7576 375.348 15.572 375.431 15.3523L377.67 15.5C377.556 16.0379 377.323 16.5076 376.971 16.9091C376.622 17.3068 376.171 17.6174 375.618 17.8409C375.069 18.0606 374.435 18.1705 373.715 18.1705ZM381.889 18.1648C381.332 18.1648 380.836 18.0682 380.4 17.875C379.965 17.678 379.62 17.3883 379.366 17.0057C379.116 16.6193 378.991 16.1383 378.991 15.5625C378.991 15.0777 379.08 14.6705 379.258 14.3409C379.436 14.0114 379.679 13.7462 379.986 13.5455C380.292 13.3447 380.641 13.1932 381.031 13.0909C381.425 12.9886 381.838 12.9167 382.27 12.875C382.777 12.822 383.186 12.7727 383.497 12.7273C383.807 12.678 384.033 12.6061 384.173 12.5114C384.313 12.4167 384.383 12.2765 384.383 12.0909V12.0568C384.383 11.697 384.27 11.4186 384.042 11.2216C383.819 11.0246 383.501 10.9261 383.088 10.9261C382.652 10.9261 382.306 11.0227 382.048 11.2159C381.79 11.4053 381.62 11.6439 381.537 11.9318L379.298 11.75C379.412 11.2197 379.635 10.7614 379.968 10.375C380.302 9.98485 380.732 9.68561 381.258 9.47727C381.789 9.26515 382.402 9.15909 383.099 9.15909C383.584 9.15909 384.048 9.21591 384.491 9.32955C384.938 9.44318 385.334 9.61932 385.679 9.85795C386.027 10.0966 386.302 10.4034 386.503 10.7784C386.703 11.1496 386.804 11.5947 386.804 12.1136V18H384.508V16.7898H384.44C384.3 17.0625 384.112 17.303 383.878 17.5114C383.643 17.7159 383.361 17.8769 383.031 17.9943C382.701 18.108 382.321 18.1648 381.889 18.1648ZM382.582 16.4943C382.938 16.4943 383.253 16.4242 383.525 16.2841C383.798 16.1402 384.012 15.947 384.167 15.7045C384.323 15.4621 384.4 15.1875 384.4 14.8807V13.9545C384.325 14.0038 384.22 14.0492 384.088 14.0909C383.959 14.1288 383.813 14.1648 383.65 14.1989C383.487 14.2292 383.325 14.2576 383.162 14.2841C382.999 14.3068 382.851 14.3277 382.718 14.3466C382.434 14.3883 382.186 14.4545 381.974 14.5455C381.762 14.6364 381.597 14.7595 381.48 14.9148C381.362 15.0663 381.304 15.2557 381.304 15.483C381.304 15.8125 381.423 16.0644 381.662 16.2386C381.904 16.4091 382.211 16.4943 382.582 16.4943ZM396.043 11.7614L393.827 11.8977C393.789 11.7083 393.708 11.5379 393.583 11.3864C393.458 11.2311 393.293 11.108 393.088 11.017C392.888 10.9223 392.647 10.875 392.367 10.875C391.992 10.875 391.675 10.9545 391.418 11.1136C391.16 11.2689 391.032 11.4773 391.032 11.7386C391.032 11.947 391.115 12.1231 391.282 12.267C391.448 12.411 391.734 12.5265 392.139 12.6136L393.719 12.9318C394.568 13.1061 395.2 13.3864 395.617 13.7727C396.033 14.1591 396.242 14.6667 396.242 15.2955C396.242 15.8674 396.073 16.3693 395.736 16.8011C395.403 17.233 394.944 17.5701 394.361 17.8125C393.782 18.0511 393.113 18.1705 392.355 18.1705C391.2 18.1705 390.28 17.9299 389.594 17.4489C388.912 16.964 388.513 16.3049 388.395 15.4716L390.776 15.3466C390.848 15.6989 391.022 15.9678 391.299 16.1534C391.575 16.3352 391.929 16.4261 392.361 16.4261C392.785 16.4261 393.126 16.3447 393.384 16.1818C393.645 16.0152 393.778 15.8011 393.782 15.5398C393.778 15.3201 393.685 15.1402 393.503 15C393.321 14.8561 393.041 14.7462 392.662 14.6705L391.151 14.3693C390.299 14.1989 389.664 13.9034 389.247 13.483C388.835 13.0625 388.628 12.5265 388.628 11.875C388.628 11.3144 388.78 10.8314 389.083 10.4261C389.389 10.0208 389.819 9.70833 390.372 9.48864C390.929 9.26894 391.581 9.15909 392.327 9.15909C393.429 9.15909 394.297 9.39205 394.929 9.85795C395.566 10.3239 395.937 10.9583 396.043 11.7614Z" fill="white"/>
<path d="M478.642 19H476.392L480.489 7.36364H483.091L487.193 19H484.943L481.835 9.75H481.744L478.642 19ZM478.716 14.4375H484.852V16.1307H478.716V14.4375ZM488.726 19V7.36364H490.783V11.7159H490.868C490.974 11.5038 491.124 11.2784 491.317 11.0398C491.51 10.7973 491.771 10.5909 492.101 10.4205C492.43 10.2462 492.851 10.1591 493.362 10.1591C494.036 10.1591 494.644 10.3314 495.186 10.6761C495.732 11.017 496.163 11.5227 496.482 12.1932C496.804 12.8598 496.964 13.678 496.964 14.6477C496.964 15.6061 496.807 16.4205 496.493 17.0909C496.179 17.7614 495.75 18.2727 495.209 18.625C494.667 18.9773 494.054 19.1534 493.368 19.1534C492.868 19.1534 492.453 19.0701 492.124 18.9034C491.794 18.7367 491.529 18.536 491.328 18.3011C491.131 18.0625 490.978 17.8371 490.868 17.625H490.749V19H488.726ZM490.743 14.6364C490.743 15.2008 490.822 15.6951 490.982 16.1193C491.144 16.5436 491.377 16.875 491.68 17.1136C491.987 17.3485 492.358 17.4659 492.794 17.4659C493.249 17.4659 493.629 17.3447 493.936 17.1023C494.243 16.8561 494.474 16.5208 494.629 16.0966C494.788 15.6686 494.868 15.1818 494.868 14.6364C494.868 14.0947 494.79 13.6136 494.635 13.1932C494.48 12.7727 494.249 12.4432 493.942 12.2045C493.635 11.9659 493.252 11.8466 492.794 11.8466C492.355 11.8466 491.982 11.9621 491.675 12.1932C491.368 12.4242 491.135 12.7481 490.976 13.1648C490.821 13.5814 490.743 14.072 490.743 14.6364ZM502.52 19.1705C501.668 19.1705 500.929 18.983 500.304 18.608C499.679 18.233 499.194 17.7083 498.849 17.0341C498.509 16.3598 498.338 15.572 498.338 14.6705C498.338 13.7689 498.509 12.9792 498.849 12.3011C499.194 11.6231 499.679 11.0966 500.304 10.7216C500.929 10.3466 501.668 10.1591 502.52 10.1591C503.372 10.1591 504.111 10.3466 504.736 10.7216C505.361 11.0966 505.844 11.6231 506.185 12.3011C506.529 12.9792 506.702 13.7689 506.702 14.6705C506.702 15.572 506.529 16.3598 506.185 17.0341C505.844 17.7083 505.361 18.233 504.736 18.608C504.111 18.983 503.372 19.1705 502.52 19.1705ZM502.531 17.5227C502.993 17.5227 503.38 17.3958 503.69 17.142C504.001 16.8845 504.232 16.5398 504.384 16.108C504.539 15.6761 504.616 15.1951 504.616 14.6648C504.616 14.1307 504.539 13.6477 504.384 13.2159C504.232 12.7803 504.001 12.4337 503.69 12.1761C503.38 11.9186 502.993 11.7898 502.531 11.7898C502.058 11.7898 501.664 11.9186 501.349 12.1761C501.039 12.4337 500.806 12.7803 500.651 13.2159C500.499 13.6477 500.423 14.1307 500.423 14.6648C500.423 15.1951 500.499 15.6761 500.651 16.108C500.806 16.5398 501.039 16.8845 501.349 17.142C501.664 17.3958 502.058 17.5227 502.531 17.5227ZM514.01 15.3295V10.2727H516.067V19H514.072V17.4489H513.982C513.785 17.9375 513.461 18.3371 513.01 18.6477C512.563 18.9583 512.012 19.1136 511.357 19.1136C510.785 19.1136 510.279 18.9867 509.839 18.733C509.404 18.4754 509.063 18.1023 508.817 17.6136C508.571 17.1212 508.447 16.5265 508.447 15.8295V10.2727H510.504V15.5114C510.504 16.0644 510.656 16.5038 510.959 16.8295C511.262 17.1553 511.66 17.3182 512.152 17.3182C512.455 17.3182 512.749 17.2443 513.033 17.0966C513.317 16.9489 513.55 16.7292 513.732 16.4375C513.917 16.142 514.01 15.7727 514.01 15.3295ZM522.54 10.2727V11.8636H517.523V10.2727H522.54ZM518.761 8.18182H520.818V16.375C520.818 16.6515 520.86 16.8636 520.943 17.0114C521.03 17.1553 521.144 17.2538 521.284 17.3068C521.424 17.3598 521.58 17.3864 521.75 17.3864C521.879 17.3864 521.996 17.3769 522.102 17.358C522.212 17.339 522.295 17.322 522.352 17.3068L522.699 18.9148C522.589 18.9527 522.432 18.9943 522.227 19.0398C522.027 19.0852 521.78 19.1117 521.489 19.1193C520.973 19.1345 520.509 19.0568 520.097 18.8864C519.684 18.7121 519.356 18.4432 519.114 18.0795C518.875 17.7159 518.758 17.2614 518.761 16.7159V8.18182ZM535.655 7.36364H537.763V14.9659C537.763 15.7992 537.566 16.5322 537.172 17.1648C536.782 17.7973 536.232 18.2917 535.524 18.6477C534.816 19 533.988 19.1761 533.041 19.1761C532.09 19.1761 531.261 19 530.553 18.6477C529.844 18.2917 529.295 17.7973 528.905 17.1648C528.515 16.5322 528.32 15.7992 528.32 14.9659V7.36364H530.428V14.7898C530.428 15.2746 530.534 15.7064 530.746 16.0852C530.962 16.464 531.265 16.7614 531.655 16.9773C532.045 17.1894 532.507 17.2955 533.041 17.2955C533.575 17.2955 534.037 17.1894 534.428 16.9773C534.821 16.7614 535.125 16.464 535.337 16.0852C535.549 15.7064 535.655 15.2746 535.655 14.7898V7.36364ZM546.861 12.5795L544.986 12.7841C544.933 12.5947 544.84 12.4167 544.707 12.25C544.579 12.0833 544.404 11.9489 544.185 11.8466C543.965 11.7443 543.696 11.6932 543.378 11.6932C542.95 11.6932 542.59 11.786 542.298 11.9716C542.01 12.1572 541.868 12.3977 541.872 12.6932C541.868 12.947 541.961 13.1534 542.151 13.3125C542.344 13.4716 542.662 13.6023 543.105 13.7045L544.594 14.0227C545.42 14.2008 546.033 14.483 546.435 14.8693C546.84 15.2557 547.045 15.7614 547.048 16.3864C547.045 16.9356 546.884 17.4205 546.565 17.8409C546.251 18.2576 545.813 18.5833 545.253 18.8182C544.692 19.053 544.048 19.1705 543.321 19.1705C542.253 19.1705 541.393 18.947 540.741 18.5C540.09 18.0492 539.702 17.4223 539.577 16.6193L541.582 16.4261C541.673 16.8201 541.866 17.1174 542.162 17.3182C542.457 17.5189 542.842 17.6193 543.315 17.6193C543.804 17.6193 544.196 17.5189 544.491 17.3182C544.791 17.1174 544.94 16.8693 544.94 16.5739C544.94 16.3239 544.844 16.1174 544.651 15.9545C544.461 15.7917 544.166 15.6667 543.764 15.5795L542.276 15.267C541.438 15.0928 540.819 14.7992 540.418 14.3864C540.016 13.9697 539.817 13.4432 539.821 12.8068C539.817 12.2689 539.963 11.803 540.259 11.4091C540.558 11.0114 540.973 10.7045 541.503 10.4886C542.037 10.2689 542.652 10.1591 543.349 10.1591C544.372 10.1591 545.177 10.3769 545.764 10.8125C546.355 11.2481 546.721 11.8371 546.861 12.5795Z" fill="white"/>
<path fill-rule="evenodd" clip-rule="evenodd" d="M676.816 0.0902667C678.415 0.0172672 678.926 0 683 0C687.074 0 687.585 0.0172672 689.184 0.0902667C690.781 0.163087 691.871 0.416679 692.826 0.78751C693.812 1.17079 694.648 1.68369 695.482 2.51758C696.316 3.35153 696.829 4.18805 697.213 5.17443C697.583 6.12854 697.837 7.21894 697.91 8.81552C697.983 10.4154 698 10.9262 698 15C698 19.0738 697.983 19.5846 697.91 21.1845C697.837 22.7811 697.583 23.8715 697.213 24.8256C696.829 25.812 696.316 26.6485 695.482 27.4824C694.648 28.3163 693.812 28.8292 692.826 29.2125C691.871 29.5833 690.781 29.8369 689.184 29.9097C687.585 29.9827 687.074 30 683 30C678.926 30 678.415 29.9827 676.816 29.9097C675.219 29.8369 674.129 29.5833 673.174 29.2125C672.188 28.8292 671.352 28.3163 670.518 27.4824C669.684 26.6485 669.171 25.812 668.788 24.8256C668.417 23.8715 668.163 22.7811 668.09 21.1845C668.017 19.5846 668 19.0738 668 15C668 10.9262 668.017 10.4154 668.09 8.81552C668.163 7.21894 668.417 6.12854 668.788 5.17443C669.171 4.18805 669.684 3.35153 670.518 2.51758C671.352 1.68369 672.188 1.17079 673.174 0.78751C674.129 0.416679 675.219 0.163087 676.816 0.0902667ZM691.847 3.30664C691.318 3.10122 690.524 2.85685 689.061 2.79017C687.48 2.718 687.005 2.7027 683 2.7027C678.995 2.7027 678.52 2.718 676.939 2.79017C675.476 2.85685 674.682 3.10122 674.153 3.30664C673.453 3.57875 672.954 3.90379 672.429 4.42872C671.904 4.95359 671.579 5.45327 671.307 6.15343C671.101 6.68199 670.857 7.47623 670.79 8.93871C670.718 10.5204 670.703 10.9948 670.703 15C670.703 19.0052 670.718 19.4796 670.79 21.0613C670.857 22.5238 671.101 23.318 671.307 23.8466C671.579 24.5467 671.904 25.0464 672.429 25.5713C672.954 26.0962 673.453 26.4213 674.153 26.6934C674.682 26.8988 675.476 27.1431 676.939 27.2098C678.52 27.282 678.995 27.2973 683 27.2973C687.005 27.2973 687.48 27.282 689.061 27.2098C690.524 27.1431 691.318 26.8988 691.847 26.6934C692.547 26.4213 693.046 26.0962 693.571 25.5713C694.096 25.0464 694.421 24.5467 694.693 23.8466C694.899 23.318 695.143 22.5238 695.21 21.0613C695.282 19.4796 695.297 19.0052 695.297 15C695.297 10.9948 695.282 10.5204 695.21 8.93871C695.143 7.47623 694.899 6.68199 694.693 6.15343C694.421 5.45327 694.096 4.95359 693.571 4.42872C693.046 3.90379 692.547 3.57875 691.847 3.30664ZM683 7.2973C678.746 7.2973 675.297 10.7459 675.297 15C675.297 19.2541 678.746 22.7027 683 22.7027C687.254 22.7027 690.703 19.2541 690.703 15C690.703 10.7459 687.254 7.2973 683 7.2973ZM678 15C678 17.7614 680.239 20 683 20C685.761 20 688 17.7614 688 15C688 12.2386 685.761 10 683 10C680.239 10 678 12.2386 678 15ZM691.007 8.79295C692.001 8.79295 692.807 7.9871 692.807 6.99298C692.807 5.99886 692.001 5.19295 691.007 5.19295C690.013 5.19295 689.207 5.99886 689.207 6.99298C689.207 7.9871 690.013 8.79295 691.007 8.79295Z" fill="#FDD65B"/>
<path fill-rule="evenodd" clip-rule="evenodd" d="M749.345 0H722.655C721.741 0 721 0.741046 721 1.65517V28.3448C721 29.259 721.741 30 722.655 30H737.034V18.3983H733.129V13.8569H737.034V10.5155C737.034 6.64138 739.403 4.53103 742.859 4.53103C744.023 4.5285 745.187 4.5872 746.345 4.7069V8.7569H743.966C742.083 8.7569 741.716 9.64655 741.716 10.9603V13.8517H746.216L745.631 18.3931H741.69V30H749.345C750.259 30 751 29.259 751 28.3448V1.65517C751 0.741046 750.259 0 749.345 0Z" fill="#FDD65B"/>
<path fill-rule="evenodd" clip-rule="evenodd" d="M776.75 30H799.25C801.32 30 803 28.32 803 26.25V3.75C803 1.68 801.32 0 799.25 0H776.75C774.68 0 773 1.68 773 3.75V26.25C773 28.32 774.68 30 776.75 30ZM795.462 11.6775C795.462 16.755 791.592 22.62 784.52 22.62C782.352 22.62 780.327 21.9825 778.632 20.9025C778.932 20.94 779.24 20.955 779.547 20.955C781.347 20.955 783.005 20.34 784.325 19.305C782.645 19.275 781.22 18.165 780.732 16.635C780.965 16.68 781.205 16.7025 781.452 16.7025C781.805 16.7025 782.142 16.6575 782.465 16.5675C780.71 16.215 779.382 14.655 779.382 12.795V12.7425C779.9 13.0275 780.492 13.2 781.122 13.2225C780.095 12.5325 779.412 11.355 779.412 10.02C779.412 9.315 779.6 8.655 779.93 8.085C781.827 10.41 784.663 11.9475 787.858 12.105C787.797 11.82 787.76 11.5275 787.76 11.2275C787.76 9.105 789.485 7.38 791.608 7.38C792.71 7.38 793.708 7.845 794.413 8.595C795.29 8.4225 796.115 8.1075 796.858 7.665C796.565 8.565 795.958 9.3225 795.162 9.795C795.943 9.6975 796.685 9.495 797.375 9.1875C796.858 9.96 796.205 10.6425 795.455 11.1825C795.462 11.3475 795.462 11.5125 795.462 11.6775Z" fill="#FDD65B"/>
<path fill-rule="evenodd" clip-rule="evenodd" d="M840 0C831.716 0 825 6.71615 825 15.0009C825 21.3559 828.954 26.7887 834.534 28.9745C834.403 27.7876 834.284 25.9623 834.586 24.6666C834.858 23.496 836.345 17.2102 836.345 17.2102C836.345 17.2102 835.896 16.3116 835.896 14.983C835.896 12.8972 837.105 11.3399 838.61 11.3399C839.89 11.3399 840.508 12.3009 840.508 13.4531C840.508 14.7401 839.688 16.6643 839.266 18.4476C838.912 19.9408 840.014 21.1584 841.487 21.1584C844.153 21.1584 846.202 18.3471 846.202 14.289C846.202 10.6974 843.622 8.18609 839.937 8.18609C835.669 8.18609 833.163 11.3875 833.163 14.6962C833.163 15.9853 833.66 17.368 834.28 18.1194C834.402 18.2679 834.42 18.3982 834.384 18.5497C834.27 19.0236 834.017 20.0425 833.967 20.2509C833.902 20.5255 833.75 20.5836 833.466 20.4516C831.592 19.5794 830.421 16.8403 830.421 14.6401C830.421 9.9081 833.859 5.56249 840.332 5.56249C845.535 5.56249 849.579 9.27052 849.579 14.2262C849.579 19.3962 846.32 23.5568 841.795 23.5568C840.276 23.5568 838.847 22.7671 838.357 21.8343C838.357 21.8343 837.605 24.6984 837.423 25.4002C837.084 26.7033 836.17 28.3365 835.559 29.3328C836.962 29.7673 838.454 30.0018 840 30.0018C848.284 30.0018 855 23.2857 855 15.0009C855 6.71615 848.284 0 840 0Z" fill="#FDD65B"/>
</svg>
